<?xml version="1.0" encoding="utf-8"?>
<!-- Generator: Adobe Illustrator 21.0.0, SVG Export Plug-In . SVG Version: 6.00 Build 0)  -->
<svg version="1.1" xmlns="http://www.w3.org/2000/svg" xmlns:xlink="http://www.w3.org/1999/xlink" x="0px" y="0px"
	 viewBox="0 0 995.5 486.7" style="enable-background:new 0 0 995.5 486.7;" xml:space="preserve">
<style type="text/css">
	.st0{display:none;}
	.st1{display:inline;fill:#56B096;}
	.st2{opacity:0.31;}
	.st3{fill:none;}
	.st4{fill:#FFFFFF;}
	.st5{fill:#2B2B2B;}
	.st6{fill:#FFFFFF;stroke:#2B2B2B;stroke-width:5;stroke-linecap:round;stroke-linejoin:round;stroke-miterlimit:10;}
	.st7{fill:#56B096;stroke:#2B2B2B;stroke-width:4;stroke-linecap:round;stroke-linejoin:round;stroke-miterlimit:10;}
	.st8{fill:#56B096;stroke:#2B2B2B;stroke-width:5;stroke-linecap:round;stroke-linejoin:round;stroke-miterlimit:10;}
	.st9{fill:#FCFCFC;stroke:#2B2B2B;stroke-width:4;stroke-linecap:round;stroke-linejoin:round;stroke-miterlimit:10;}
	.st10{fill:#2B2B2B;stroke:#2B2B2B;stroke-width:5;stroke-linecap:round;stroke-linejoin:round;stroke-miterlimit:10;}
</style>
<g id="Layer_4" class="st0">
	<rect x="-213" y="-239.6" class="st1" width="1366" height="768"/>
</g>
<g id="Layer_3">
	<g class="st2">
		<path class="st3" d="M763.8,236.5H820c0.3,0.1,0.6,0.2,0.9,0.2h0.9c12.9-4,22.2-15.4,22.2-28.8v0c0-15.6-12.7-28.5-28.9-30.1
			h-54.4h-21.9h-8.9c-11.8,1.5-21.1,14.3-21.1,29.6v0c0,14.1,7.9,26.1,18.4,29h8.7H763.8z"/>
		<path class="st4" d="M605.5,59.3h3.1c14.3,0,26.1-13.4,26.1-29.8v0c0-16.4-11.7-29.8-26.1-29.8h-3.1c-14.3,0-26.1,13.4-26.1,29.8
			v0C579.4,45.9,591.2,59.3,605.5,59.3z"/>
		<path class="st4" d="M980.5,240.9c-2.6-1.7-5.4-3-8.5-3.6c-1.5-0.3-3.1-0.5-4.7-0.5h-43c-1.1,0-2.2,0.1-3.3,0.3h-34.8
			c-13.3-3.7-23.1-15.3-23.1-29v0c0-15.6,12.7-28.5,28.9-30.1h38c0.9,0,1.8-0.1,2.7-0.2h3.1c0.5-0.3,0.9-0.5,1.4-0.7h-0.9
			c11.3-3.2,19.8-15,19.8-28.9v0c0-15.3-10.3-28.1-23.4-29.6c-0.9-0.1-1.8-0.2-2.7-0.2h-67.7c-13.1-1.5-23.4-14.3-23.4-29.6v0
			c0-14.5,9.2-26.7,21.4-29.3h21.4c1.6,0,3.2-0.2,4.7-0.5c12.1-2.6,21.4-14.7,21.4-29.3c0-16.4-11.7-29.8-26.1-29.8H680.8
			c-14.3,0-26.1,13.4-26.1,29.8c0,14.5,9.2,26.7,21.4,29.3c1.5,0.3,3.1,0.5,4.7,0.5h84.9c12.1,2.6,21.4,14.7,21.4,29.3v0
			c0,15.3-10.3,28.1-23.4,29.6H564.7h-26.6c-0.9,0-1.8,0.1-2.7,0.2c-13.1,1.5-23.4,14.3-23.4,29.6v0c0,15.3,10.3,28.1,23.4,29.6
			c0.9,0.1,1.8,0.2,2.7,0.2h9.5h100.1c11.8,1.5,21.1,14.3,21.1,29.6v0c0,14.1-7.9,26.1-18.4,29h0.3c-0.3,0.1-0.6,0.2-0.9,0.2h-48.9
			c-1.6,0-3.2,0.2-4.7,0.5c-11.6,2.5-20.5,13.7-21.3,27.4c0,0.5-0.1,1.1-0.1,1.6c0,0.1,0,0.2,0,0.2v0c0,0,0,0,0,0.1c0,0,0,0,0,0.1v0
			c0,0.3,0,0.6,0,0.9c0,0.2,0,0.4,0,0.5c0,0.1,0,0.3,0,0.4c0.9,15.4,12.3,27.8,26,27.8h3.5h71.4H804h32.6h87.6h35.3h6.3h1.4
			c3.6,0,7-0.8,10.1-2.3c10.6-4.5,18.1-15.1,18.1-27.3v0C995.5,255.6,989.4,246,980.5,240.9z M708.8,207.5L708.8,207.5
			c0-15.3,9.3-28.1,21.1-29.6h8.9h21.9h54.4c16.2,1.6,28.9,14.5,28.9,30.1v0c0,13.4-9.4,24.8-22.2,28.8H821
			c-0.3-0.1-0.6-0.1-0.9-0.2h-56.3h-27.9h-8.7C716.7,233.6,708.8,221.6,708.8,207.5z"/>
	</g>
	<path class="st5" d="M742.6,297.2c-5.4-3.7-11.2-6.9-16-11.4c-4.7-4.4-11.8,2.6-7.1,7.1c5,4.7,10.8,8.1,16.4,11.9
		c5.2,3.4,11,7.5,12.7,13.9c4.1,15.4-16.8,24.7-28.8,25.8c-19.7,1.8-38.8-4.6-57.4-10c-18.8-5.6-37.8-9.8-57.3-12.2
		c-10.1-1.3-20.2-2.1-30.3-2.4c-8.4-0.2-17.2,0-25.3,2.7c-14.2,4.7-26.2,17.8-23.3,33.6c2.7,14.5,17.1,23.4,28.5,30.9
		c14.1,9.2,28.3,20.8,34.8,36.7c5.8,14.1,5.1,32-6.6,42.9c-11.1,10.4-27.8,10.9-42.1,9.8c-18.3-1.5-36.6-5.8-54.4-9.8
		c-19.3-4.4-38.5-9.5-57.4-15.4c-72.5-22.6-140.8-58.3-215.6-73.4c-38.7-7.8-78.5-9.7-117.9-6.8c-19.7,1.4-39.3,4.1-58.6,7.8
		c-9.7,1.9-19.7,3.6-29.1,6.6c-2.9,0.9-5.7,2.3-7,5.2c-1.3,2.9-0.5,6.4,2.3,8.1c4,2.3,9.1-0.2,9.7-4.1c0.7-0.2,1.3-0.4,1.3-0.4
		c2.2-0.5,4.4-1.1,6.6-1.6c4.7-1.1,9.4-2.1,14.1-3.1c9.8-2,19.6-3.7,29.4-5.1c19.6-2.8,39.4-4.3,59.1-4.6
		c38.6-0.6,76.8,4.1,114.1,14c72.4,19.4,139.7,53.9,211.9,73.9c18.8,5.2,37.8,9.7,56.9,13.4c15.9,3.1,32.3,6.5,48.7,5.7
		c14.1-0.7,28.7-4.9,38.1-16.1c9.7-11.5,11.9-27.2,8.7-41.7c-3.4-15.3-13.5-28.3-25.2-38.3c-6.2-5.3-12.9-9.8-19.7-14.3
		c-6-4-12.3-8.2-16.7-13.9c-4.7-6-5.8-13.5-1.6-20.1c4.5-7,12.4-10.4,20.4-11.8c8.9-1.5,18.3-0.7,27.3-0.1c10.1,0.7,20.1,1.8,30,3.4
		c19.2,3.2,37.7,8.7,56.4,14c17.3,4.9,35.7,9.1,53.8,5.8c13-2.3,27.4-11.1,31.7-24.2C762.3,315.6,753.2,304.6,742.6,297.2z"/>
	<path class="st5" d="M748.3,261c-2.6-0.1-5.1-0.3-7.7-0.4c-1.9-0.1-1.9,2.9,0,3c2.6,0.1,5.1,0.3,7.7,0.4
		C750.2,264.1,750.2,261.1,748.3,261z"/>
	<path class="st5" d="M741,275.4c-1.6-0.7-3-1.6-4.3-2.7c-1.4-1.3-3.6,0.8-2.1,2.1c1.7,1.5,3.5,2.6,5.6,3.5c0.8,0.3,1.6-0.3,1.8-1
		C742.3,276.4,741.7,275.8,741,275.4z"/>
	<path class="st5" d="M681.8,247.8c-1.4-2.1-2.8-4.3-4.1-6.5c-1-1.7-3.6-0.2-2.6,1.5c1.3,2.2,2.6,4.4,4.1,6.5
		C680.2,250.9,682.8,249.4,681.8,247.8z"/>
	<path class="st5" d="M685.6,281.8c-3.1,1.9-6.1,3.9-9,6c-1.5,1.1,0,3.7,1.5,2.6c2.9-2.1,5.9-4.2,9-6
		C688.7,283.4,687.2,280.8,685.6,281.8z"/>
	<path class="st5" d="M694.5,287.8c0,2.3-0.1,4.6-0.6,6.9c-0.4,1.9,2.5,2.7,2.9,0.8c0.5-2.6,0.8-5.1,0.7-7.7
		C697.4,285.8,694.4,285.8,694.5,287.8z"/>
</g>
<g id="Layer_5">
</g>
<g id="Layer_2">
	<g>
		<g>
			<path class="st6" d="M703.2,205.3l-2.5,44c0.1,0,0.2,0.1,0.3,0.1c0.6-0.6,1.4-1,2.5-1c2.6,0,3.8,2.2,3.6,4.3
				c0,0.1,0.1,0.3,0.1,0.4c0.2-0.1,0.4-0.2,0.6-0.3c1.6-0.7,3.3-0.7,4.5,0.6c1.1,1.1,1.3,2.7,0.8,4.1c0.2,0.1,0.4,0.2,0.6,0.3
				l36.6-26.6L703.2,205.3z"/>
			<g>
				
					<rect x="711.4" y="186.5" transform="matrix(-0.8714 -0.4907 0.4907 -0.8714 1273.5402 743.3189)" class="st4" width="45.6" height="36.5"/>
			</g>
		</g>
		<path class="st7" d="M827.6,15l21.1,11.9c7.3,4.1,9.9,13.5,5.8,20.8L847,61.1c-4.1,7.3-13.5,9.9-20.8,5.8L805.1,55
			c-7.3-4.1-9.9-13.5-5.8-20.8l7.5-13.3C810.9,13.5,820.3,10.9,827.6,15z"/>
		<path class="st8" d="M706.5,206.6c0.9-2.8,4.5-4.6,8.9-2.1c4.4,2.5,4.7,6.5,2.8,8.7l2,1.1c1-2.7,4.5-4.4,8.8-1.9
			c4.3,2.4,4.7,6.3,2.9,8.6l3.2,1.8c1-2.7,4.5-4.4,8.8-1.9c4.3,2.4,4.7,6.3,2.9,8.6l3.4,1.9l84.3-149.8l-46.9-26.4l-84.3,149.8
			L706.5,206.6z"/>
		<line class="st7" x1="741.7" y1="207.5" x2="793.8" y2="115"/>
		<line class="st7" x1="799.5" y1="104.8" x2="803.3" y2="98.1"/>
		<line class="st7" x1="808.7" y1="88.4" x2="816.7" y2="74.3"/>
		<line class="st7" x1="721.9" y1="209.3" x2="740.8" y2="175.8"/>
		<line class="st7" x1="745.7" y1="167.1" x2="762.7" y2="136.9"/>
		<line class="st7" x1="767.5" y1="128.4" x2="769.7" y2="124.4"/>
		<line class="st7" x1="773.5" y1="117.7" x2="802.4" y2="66.3"/>
		<path class="st9" d="M793.7,37.5l53.5,30.2c2.2,1.2,3,4.1,1.8,6.3l-4,7.1c-1.2,2.2-4.1,3-6.3,1.8l-53.5-30.2
			c-2.2-1.2-3-4.1-1.8-6.3l4-7.1C788.6,37,791.5,36.2,793.7,37.5z"/>
		<ellipse transform="matrix(0.5665 -0.824 0.824 0.5665 329.9046 684.4659)" class="st5" cx="815.6" cy="28.6" rx="2.9" ry="2.9"/>
		<ellipse transform="matrix(0.5665 -0.824 0.824 0.5665 329.7398 713.3267)" class="st5" cx="842.9" cy="43.2" rx="2.9" ry="2.9"/>
		<path class="st7" d="M818,40.9c0,0,11.4-6.9,10.9,5.7"/>
	</g>
	<polygon class="st10" points="673.7,261.7 662.5,269.4 675.8,271.1 	"/>
</g>
</svg>
