<?xml version="1.0" encoding="utf-8"?>
<!-- Generator: Adobe Illustrator 21.0.0, SVG Export Plug-In . SVG Version: 6.00 Build 0)  -->
<svg version="1.1" xmlns="http://www.w3.org/2000/svg" xmlns:xlink="http://www.w3.org/1999/xlink" x="0px" y="0px"
	 viewBox="0 0 1366 768" style="enable-background:new 0 0 1366 768;" xml:space="preserve">
<style type="text/css">
	.st0{display:none;}
	.st1{display:inline;fill:#56B096;}
	.st2{opacity:0.32;}
	.st3{stroke:#000000;stroke-miterlimit:10;}
	.st4{stroke:#000000;stroke-width:11;stroke-linecap:round;stroke-miterlimit:10;}
	.st5{fill:#FFFFFF;}
	.st6{fill:none;}
	.st7{fill:#2B2B2B;stroke:#2B2B2B;stroke-width:11;stroke-linecap:round;stroke-miterlimit:10;}
	.st8{fill:none;stroke:#56B096;stroke-width:6;stroke-linecap:round;stroke-miterlimit:10;}
	.st9{fill:#FFFFFF;stroke:#2B2B2B;stroke-width:6;stroke-linecap:round;stroke-linejoin:round;stroke-miterlimit:10;}
	.st10{fill:#56B096;stroke:#2B2B2B;stroke-width:4;stroke-linecap:round;stroke-linejoin:round;stroke-miterlimit:10;}
	.st11{fill:none;stroke:#2B2B2B;stroke-width:4;stroke-linecap:round;stroke-linejoin:round;stroke-miterlimit:10;}
	.st12{fill:#FFFFFF;stroke:#2B2B2B;stroke-width:4;stroke-linecap:round;stroke-linejoin:round;stroke-miterlimit:10;}
	.st13{fill:#FCFCFC;stroke:#2B2B2B;stroke-width:4;stroke-linecap:round;stroke-linejoin:round;stroke-miterlimit:10;}
	.st14{fill:none;stroke:#2B2B2B;stroke-width:9;stroke-miterlimit:10;}
	.st15{fill:#FFFFFF;stroke:#2B2B2B;stroke-width:6;stroke-miterlimit:10;}
	.st16{fill:#FFFFFF;stroke:#2B2B2B;stroke-width:6;stroke-linecap:round;stroke-miterlimit:10;}
	.st17{fill:#FFFFFF;stroke:#56B096;stroke-width:7;stroke-linecap:round;stroke-miterlimit:10;}
	.st18{fill:none;stroke:#56B096;stroke-width:9;stroke-linecap:round;stroke-miterlimit:10;}
	.st19{fill:#FFFFFF;stroke:#2B2B2B;stroke-width:4;stroke-linecap:round;stroke-miterlimit:10;}
	.st20{fill:#2B2B2B;}
	.st21{fill:#56B096;stroke:#2B2B2B;stroke-width:2;stroke-linecap:round;stroke-linejoin:round;stroke-miterlimit:10;}
	.st22{fill:none;stroke:#2B2B2B;stroke-width:3;stroke-linecap:round;stroke-linejoin:round;stroke-miterlimit:10;}
	.st23{fill:#56B096;}
	.st24{fill:none;stroke:#2B2B2B;stroke-width:4;stroke-linecap:round;stroke-miterlimit:10;}
	.st25{fill:#FFFFFF;stroke:#2B2B2B;stroke-width:4;stroke-linejoin:round;stroke-miterlimit:10;}
	.st26{fill:none;stroke:#56B096;stroke-width:6;stroke-linecap:round;stroke-linejoin:round;stroke-miterlimit:10;}
</style>
<g id="Layer_4" class="st0">
	<rect class="st1" width="1366" height="768"/>
</g>
<g id="Layer_1">
</g>
<g id="Layer_3">
</g>
<g id="Layer_2">
	<g class="st2">
		<g>
			<path class="st3" d="M665.3,415.8h-25c-4.8,0-8.7-3.9-8.7-8.7v0c0-4.8,3.9-8.7,8.7-8.7h25c4.8,0,8.7,3.9,8.7,8.7v0
				C673.9,411.9,670,415.8,665.3,415.8z"/>
			<g>
				<path class="st3" d="M1177.2,309.2c0-4.8,3.9-8.7,8.7-8.7h6.7c-0.1-5.6-0.1-10.5-0.2-14.4c-1-56-59-54-59-54s-234-1-301,0
					s-58,61-58,61v104.7h8.1c4.8,0,8.7,3.9,8.7,8.7s-3.9,8.7-8.7,8.7h-8.1v120.4h23c4.8,0,8.7,3.9,8.7,8.7s-3.9,8.7-8.7,8.7h-23
					v22.2h418c0,0,0.1-30.7,0.3-72.5H1167c-4.8,0-8.7-3.9-8.7-8.7s3.9-8.7,8.7-8.7h25.7c0.1-55.3,0.2-123.7,0-167.4h-6.9
					C1181.1,317.8,1177.2,313.9,1177.2,309.2z M832.9,552.8L832.9,552.8c-4.8,0-8.7-3.9-8.7-8.7s3.9-8.7,8.7-8.7h0
					c4.8,0,8.7,3.9,8.7,8.7S837.6,552.8,832.9,552.8z M1101.6,309.2c0-4.8,3.9-8.7,8.7-8.7c4.8,0,8.7,3.9,8.7,8.7s-3.9,8.7-8.7,8.7
					C1105.5,317.8,1101.6,313.9,1101.6,309.2z M1133.3,502.6h-8.7c-4.8,0-8.7-3.9-8.7-8.7s3.9-8.7,8.7-8.7h8.7
					c4.8,0,8.7,3.9,8.7,8.7S1138,502.6,1133.3,502.6z M1156.8,317.8h-16.4c-4.8,0-8.7-3.9-8.7-8.7s3.9-8.7,8.7-8.7h16.4
					c4.8,0,8.7,3.9,8.7,8.7S1161.5,317.8,1156.8,317.8z"/>
			</g>
			<g>
				<path class="st3" d="M249.8,380.2h-5c-4.8,0-8.7,3.9-8.7,8.7s3.9,8.7,8.7,8.7h5c4.8,0,8.7-3.9,8.7-8.7S254.6,380.2,249.8,380.2z
					"/>
				<path class="st3" d="M548.6,269h-5c-4.8,0-8.7,3.9-8.7,8.7s3.9,8.7,8.7,8.7h5c4.8,0,8.7-3.9,8.7-8.7S553.4,269,548.6,269z"/>
				<g>
					<path class="st3" d="M249.8,402.2h-5c-4.8,0-8.7,3.9-8.7,8.7s3.9,8.7,8.7,8.7h5c4.8,0,8.7-3.9,8.7-8.7S254.6,402.2,249.8,402.2
						z"/>
					<path class="st3" d="M249.8,380.2h-5c-4.8,0-8.7,3.9-8.7,8.7s3.9,8.7,8.7,8.7h5c4.8,0,8.7-3.9,8.7-8.7S254.6,380.2,249.8,380.2
						z"/>
					<path class="st3" d="M548.6,269h-5c-4.8,0-8.7,3.9-8.7,8.7s3.9,8.7,8.7,8.7h5c4.8,0,8.7-3.9,8.7-8.7S553.4,269,548.6,269z"/>
					<path class="st3" d="M615.5,286.3h-33.3c-4.8,0-8.7-3.9-8.7-8.7s3.9-8.7,8.7-8.7h31.1c-10.7-39.4-56.8-37.8-56.8-37.8
						s-234-1-301,0s-58,61-58,61v16.1c0,0,0,0.1,0,0.1v45.3c0,0,0,0.1,0,0.1v26.3h16.2c4.8,0,8.7,3.9,8.7,8.7s-3.9,8.7-8.7,8.7
						h-16.2v176.6h418C615.5,574.2,616.5,344.2,615.5,286.3z M249.8,419.5h-5c-4.8,0-8.7-3.9-8.7-8.7s3.9-8.7,8.7-8.7h5
						c4.8,0,8.7,3.9,8.7,8.7S254.6,419.5,249.8,419.5z M249.8,397.5h-5c-4.8,0-8.7-3.9-8.7-8.7s3.9-8.7,8.7-8.7h5
						c4.8,0,8.7,3.9,8.7,8.7S254.6,397.5,249.8,397.5z M548.6,286.3h-5c-4.8,0-8.7-3.9-8.7-8.7s3.9-8.7,8.7-8.7h5
						c4.8,0,8.7,3.9,8.7,8.7S553.4,286.3,548.6,286.3z"/>
				</g>
				<path class="st3" d="M249.8,402.2h-5c-4.8,0-8.7,3.9-8.7,8.7s3.9,8.7,8.7,8.7h5c4.8,0,8.7-3.9,8.7-8.7S254.6,402.2,249.8,402.2z
					"/>
			</g>
			<path class="st3" d="M208.1,504.1h-22c-4.8,0-8.7-3.9-8.7-8.7v0c0-4.8,3.9-8.7,8.7-8.7h22c4.8,0,8.7,3.9,8.7,8.7v0
				C216.8,500.2,212.9,504.1,208.1,504.1z"/>
			<path class="st3" d="M640.8,552.8h-22c-4.8,0-8.7-3.9-8.7-8.7v0c0-4.8,3.9-8.7,8.7-8.7h22c4.8,0,8.7,3.9,8.7,8.7v0
				C649.5,548.9,645.6,552.8,640.8,552.8z"/>
			<path class="st3" d="M687.6,552.8h-7.3c-4.8,0-8.7-3.9-8.7-8.7v0c0-4.8,3.9-8.7,8.7-8.7h7.3c4.8,0,8.7,3.9,8.7,8.7v0
				C696.3,548.9,692.4,552.8,687.6,552.8z"/>
			<path class="st3" d="M812.3,499.8h-76.5c-4.8,0-8.7-3.9-8.7-8.7v0c0-4.8,3.9-8.7,8.7-8.7h76.5c4.8,0,8.7,3.9,8.7,8.7v0
				C820.9,495.9,817,499.8,812.3,499.8z"/>
			<path class="st3" d="M753.9,290.5h-7.3c-4.8,0-8.7-3.9-8.7-8.7v0c0-4.8,3.9-8.7,8.7-8.7h7.3c4.8,0,8.7,3.9,8.7,8.7v0
				C762.6,286.6,758.7,290.5,753.9,290.5z"/>
			<path class="st3" d="M711.3,290.5L711.3,290.5c-4.8,0-8.7-3.9-8.7-8.7v0c0-4.8,3.9-8.7,8.7-8.7l0,0c4.8,0,8.7,3.9,8.7,8.7v0
				C719.9,286.6,716,290.5,711.3,290.5z"/>
			<path class="st3" d="M777.7,349.7h-7.3c-4.8,0-8.7-3.9-8.7-8.7l0,0c0-4.8,3.9-8.7,8.7-8.7h7.3c4.8,0,8.7,3.9,8.7,8.7l0,0
				C786.4,345.8,782.5,349.7,777.7,349.7z"/>
			<path class="st3" d="M737.3,350.7h-25c-4.8,0-8.7-3.9-8.7-8.7l0,0c0-4.8,3.9-8.7,8.7-8.7h25c4.8,0,8.7,3.9,8.7,8.7l0,0
				C745.9,346.8,742,350.7,737.3,350.7z"/>
			<path class="st3" d="M1209.3,448.7h-76.5c-4.8,0-8.7-3.9-8.7-8.7v0c0-4.8,3.9-8.7,8.7-8.7h76.5c4.8,0,8.7,3.9,8.7,8.7v0
				C1217.9,444.8,1214,448.7,1209.3,448.7z"/>
			<path class="st3" d="M1215.3,397.5h-7.3c-4.8,0-8.7-3.9-8.7-8.7v0c0-4.8,3.9-8.7,8.7-8.7h7.3c4.8,0,8.7,3.9,8.7,8.7v0
				C1223.9,393.6,1220,397.5,1215.3,397.5z"/>
			<path class="st3" d="M176.1,302.5h-7.3c-4.8,0-8.7-3.9-8.7-8.7v0c0-4.8,3.9-8.7,8.7-8.7h7.3c4.8,0,8.7,3.9,8.7,8.7v0
				C184.8,298.6,180.9,302.5,176.1,302.5z"/>
		</g>
		<g>
			<line class="st4" x1="183.9" y1="575.2" x2="352.6" y2="575.2"/>
			<line class="st4" x1="375.3" y1="575" x2="454.6" y2="575.1"/>
			<line class="st4" x1="484.9" y1="575.2" x2="490.9" y2="575.2"/>
			<line class="st4" x1="510.9" y1="575.2" x2="514.9" y2="575.2"/>
			<line class="st4" x1="534.3" y1="575.2" x2="640.9" y2="575.2"/>
			<line class="st4" x1="696.3" y1="575" x2="721.6" y2="575"/>
			<line class="st4" x1="744.9" y1="575" x2="784.9" y2="575.2"/>
			<line class="st4" x1="813.6" y1="575.2" x2="820.9" y2="575.2"/>
			<line class="st4" x1="844.3" y1="575.2" x2="1061.6" y2="575"/>
			<line class="st4" x1="1081.6" y1="575" x2="1084.9" y2="575"/>
			<line class="st4" x1="1101.6" y1="575" x2="1182.3" y2="575.2"/>
			<line class="st4" x1="1200.3" y1="575" x2="1211.6" y2="575"/>
		</g>
	</g>
	<g>
		<path class="st5" d="M650.6,404h-25c-4.8,0-8.7-3.9-8.7-8.7v0c0-4.8,3.9-8.7,8.7-8.7h25c4.8,0,8.7,3.9,8.7,8.7v0
			C659.3,400.1,655.4,404,650.6,404z"/>
		<g>
			<path class="st5" d="M1162.5,297.4c0-4.8,3.9-8.7,8.7-8.7h6.7c-0.1-5.6-0.1-10.5-0.2-14.4c-1-56-59-54-59-54s-234-1-301,0
				s-58,61-58,61v104.7h8.1c4.8,0,8.7,3.9,8.7,8.7s-3.9,8.7-8.7,8.7h-8.1v120.4h23c4.8,0,8.7,3.9,8.7,8.7s-3.9,8.7-8.7,8.7h-23v22.2
				h418c0,0,0.1-30.7,0.3-72.5h-25.7c-4.8,0-8.7-3.9-8.7-8.7s3.9-8.7,8.7-8.7h25.7c0.1-55.3,0.2-123.7,0-167.4h-6.9
				C1166.4,306,1162.5,302.1,1162.5,297.4z M818.2,541L818.2,541c-4.8,0-8.7-3.9-8.7-8.7s3.9-8.7,8.7-8.7h0c4.8,0,8.7,3.9,8.7,8.7
				S823,541,818.2,541z M1086.9,297.4c0-4.8,3.9-8.7,8.7-8.7c4.8,0,8.7,3.9,8.7,8.7s-3.9,8.7-8.7,8.7
				C1090.8,306,1086.9,302.1,1086.9,297.4z M1118.6,490.8h-8.7c-4.8,0-8.7-3.9-8.7-8.7s3.9-8.7,8.7-8.7h8.7c4.8,0,8.7,3.9,8.7,8.7
				S1123.4,490.8,1118.6,490.8z M1142.1,306h-16.4c-4.8,0-8.7-3.9-8.7-8.7s3.9-8.7,8.7-8.7h16.4c4.8,0,8.7,3.9,8.7,8.7
				S1146.9,306,1142.1,306z"/>
		</g>
		<g>
			<path class="st6" d="M235.2,368.4h-5c-4.8,0-8.7,3.9-8.7,8.7s3.9,8.7,8.7,8.7h5c4.8,0,8.7-3.9,8.7-8.7S239.9,368.4,235.2,368.4z"
				/>
			<path class="st6" d="M534,257.2h-5c-4.8,0-8.7,3.9-8.7,8.7s3.9,8.7,8.7,8.7h5c4.8,0,8.7-3.9,8.7-8.7S538.7,257.2,534,257.2z"/>
			<g>
				<path class="st6" d="M235.2,390.4h-5c-4.8,0-8.7,3.9-8.7,8.7s3.9,8.7,8.7,8.7h5c4.8,0,8.7-3.9,8.7-8.7S239.9,390.4,235.2,390.4z
					"/>
				<path class="st6" d="M235.2,368.4h-5c-4.8,0-8.7,3.9-8.7,8.7s3.9,8.7,8.7,8.7h5c4.8,0,8.7-3.9,8.7-8.7S239.9,368.4,235.2,368.4z
					"/>
				<path class="st6" d="M534,257.2h-5c-4.8,0-8.7,3.9-8.7,8.7s3.9,8.7,8.7,8.7h5c4.8,0,8.7-3.9,8.7-8.7S538.7,257.2,534,257.2z"/>
				<path class="st5" d="M600.8,274.5h-33.3c-4.8,0-8.7-3.9-8.7-8.7s3.9-8.7,8.7-8.7h31.1c-10.7-39.4-56.8-37.8-56.8-37.8
					s-234-1-301,0s-58,61-58,61v16.1c0,0,0,0.1,0,0.1V342c0,0,0,0.1,0,0.1v26.3H199c4.8,0,8.7,3.9,8.7,8.7s-3.9,8.7-8.7,8.7h-16.2
					v176.6h418C600.8,562.4,601.8,332.4,600.8,274.5z M235.2,407.7h-5c-4.8,0-8.7-3.9-8.7-8.7s3.9-8.7,8.7-8.7h5
					c4.8,0,8.7,3.9,8.7,8.7S239.9,407.7,235.2,407.7z M235.2,385.7h-5c-4.8,0-8.7-3.9-8.7-8.7s3.9-8.7,8.7-8.7h5
					c4.8,0,8.7,3.9,8.7,8.7S239.9,385.7,235.2,385.7z M534,274.5h-5c-4.8,0-8.7-3.9-8.7-8.7s3.9-8.7,8.7-8.7h5
					c4.8,0,8.7,3.9,8.7,8.7S538.7,274.5,534,274.5z"/>
			</g>
			<path class="st5" d="M235.2,390.4h-5c-4.8,0-8.7,3.9-8.7,8.7s3.9,8.7,8.7,8.7h5c4.8,0,8.7-3.9,8.7-8.7S239.9,390.4,235.2,390.4z"
				/>
		</g>
		<path class="st5" d="M193.4,492.4h-22c-4.8,0-8.7-3.9-8.7-8.7v0c0-4.8,3.9-8.7,8.7-8.7h22c4.8,0,8.7,3.9,8.7,8.7v0
			C202.1,488.5,198.2,492.4,193.4,492.4z"/>
		<path class="st5" d="M626.1,541h-22c-4.8,0-8.7-3.9-8.7-8.7l0,0c0-4.8,3.9-8.7,8.7-8.7h22c4.8,0,8.7,3.9,8.7,8.7l0,0
			C634.8,537.1,630.9,541,626.1,541z"/>
		<path class="st5" d="M672.9,541h-7.3c-4.8,0-8.7-3.9-8.7-8.7l0,0c0-4.8,3.9-8.7,8.7-8.7h7.3c4.8,0,8.7,3.9,8.7,8.7l0,0
			C681.6,537.1,677.7,541,672.9,541z"/>
		<path class="st5" d="M797.6,488h-76.5c-4.8,0-8.7-3.9-8.7-8.7l0,0c0-4.8,3.9-8.7,8.7-8.7h76.5c4.8,0,8.7,3.9,8.7,8.7l0,0
			C806.2,484.1,802.3,488,797.6,488z"/>
		<path class="st5" d="M739.3,278.7h-7.3c-4.8,0-8.7-3.9-8.7-8.7l0,0c0-4.8,3.9-8.7,8.7-8.7h7.3c4.8,0,8.7,3.9,8.7,8.7l0,0
			C747.9,274.8,744,278.7,739.3,278.7z"/>
		<path class="st5" d="M696.6,278.7L696.6,278.7c-4.8,0-8.7-3.9-8.7-8.7l0,0c0-4.8,3.9-8.7,8.7-8.7h0c4.8,0,8.7,3.9,8.7,8.7l0,0
			C705.2,274.8,701.3,278.7,696.6,278.7z"/>
		<path class="st5" d="M763,337.9h-7.3c-4.8,0-8.7-3.9-8.7-8.7v0c0-4.8,3.9-8.7,8.7-8.7h7.3c4.8,0,8.7,3.9,8.7,8.7v0
			C771.7,334,767.8,337.9,763,337.9z"/>
		<path class="st5" d="M722.6,338.9h-25c-4.8,0-8.7-3.9-8.7-8.7v0c0-4.8,3.9-8.7,8.7-8.7h25c4.8,0,8.7,3.9,8.7,8.7v0
			C731.3,335,727.4,338.9,722.6,338.9z"/>
		<path class="st5" d="M1194.6,436.9h-76.5c-4.8,0-8.7-3.9-8.7-8.7l0,0c0-4.8,3.9-8.7,8.7-8.7h76.5c4.8,0,8.7,3.9,8.7,8.7l0,0
			C1203.2,433,1199.3,436.9,1194.6,436.9z"/>
		<path class="st5" d="M1200.6,385.7h-7.3c-4.8,0-8.7-3.9-8.7-8.7l0,0c0-4.8,3.9-8.7,8.7-8.7h7.3c4.8,0,8.7,3.9,8.7,8.7l0,0
			C1209.3,381.8,1205.4,385.7,1200.6,385.7z"/>
		<path class="st5" d="M161.4,290.7h-7.3c-4.8,0-8.7-3.9-8.7-8.7l0,0c0-4.8,3.9-8.7,8.7-8.7h7.3c4.8,0,8.7,3.9,8.7,8.7l0,0
			C170.1,286.8,166.2,290.7,161.4,290.7z"/>
	</g>
	<path class="st5" d="M609.7,329.2c0,0,32.2,3.5,18.2,34.2l9,4.4l-41.2,99.4L609.7,329.2z"/>
	<g>
		<line class="st7" x1="169.3" y1="563.4" x2="337.9" y2="563.4"/>
		<line class="st7" x1="360.6" y1="563.2" x2="439.9" y2="563.3"/>
		<line class="st7" x1="470.3" y1="563.4" x2="476.3" y2="563.4"/>
		<line class="st7" x1="496.3" y1="563.4" x2="500.3" y2="563.4"/>
		<line class="st7" x1="519.6" y1="563.4" x2="626.3" y2="563.4"/>
		<line class="st7" x1="681.6" y1="563.2" x2="706.9" y2="563.2"/>
		<line class="st7" x1="730.3" y1="563.2" x2="770.3" y2="563.4"/>
		<line class="st7" x1="798.9" y1="563.4" x2="806.3" y2="563.4"/>
		<line class="st7" x1="829.6" y1="563.4" x2="1046.9" y2="563.2"/>
		<line class="st7" x1="1066.9" y1="563.2" x2="1070.3" y2="563.2"/>
		<line class="st7" x1="1086.9" y1="563.2" x2="1167.6" y2="563.4"/>
		<line class="st7" x1="1185.6" y1="563.2" x2="1196.9" y2="563.2"/>
	</g>
	<line class="st8" x1="379.9" y1="340.4" x2="429" y2="314.2"/>
	<g>
		
			<rect x="497.8" y="385.3" transform="matrix(0.336 0.9419 -0.9419 0.336 793.5663 -216.617)" class="st9" width="105.2" height="138.4"/>
		<line class="st8" x1="590.4" y1="429.8" x2="605.2" y2="472.7"/>
		<line class="st8" x1="478.1" y1="489.5" x2="480.2" y2="495.7"/>
		<line class="st8" x1="492" y1="466.1" x2="506.9" y2="508.9"/>
		<line class="st8" x1="484.1" y1="506.5" x2="486.2" y2="512.7"/>
	</g>
	<line class="st8" x1="371.5" y1="413.9" x2="389.2" y2="405.4"/>
	<line class="st8" x1="398.2" y1="401" x2="404.6" y2="397.9"/>
	<line class="st8" x1="458.6" y1="395.8" x2="462.8" y2="393.7"/>
	<g>
		<path class="st10" d="M469.7,479.4L469.7,479.4l-265.8,0c-4.3,0-7.7,3.6-7.7,8s3.5,8,7.7,8h265.8c0.1,0,0.2,0,0.3,0
			c2.5,0.2,18.7,1.8,18.7,16.3c0,15.6-19,15.6-19,15.6v0.1H204c-4.3,0-7.7,3.6-7.7,8s3.5,8,7.7,8h265.8c0.3,0,0.7,0,1-0.1
			c5.8,0.4,35.2,0.6,35.2-31C505.9,477.6,469.7,479.4,469.7,479.4z"/>
		<path class="st11" d="M207.7,497.6c0,0,9.7,17.5,0,28.8"/>
		<line class="st10" x1="210.3" y1="504.1" x2="332.5" y2="504.1"/>
		<line class="st10" x1="343.9" y1="504.1" x2="353.3" y2="504.1"/>
		<line class="st10" x1="368.2" y1="504.1" x2="453" y2="504.1"/>
		<line class="st10" x1="473.7" y1="515.1" x2="402.7" y2="515.1"/>
		<line class="st10" x1="393.1" y1="515.1" x2="378.4" y2="515.1"/>
		<line class="st10" x1="365.6" y1="515.1" x2="286.6" y2="515.1"/>
		<line class="st10" x1="265.4" y1="515.1" x2="237.4" y2="515.1"/>
	</g>
	<g>
		<path class="st10" d="M503.3,412.6L503.3,412.6l-265.8,0c-4.3,0-7.7,3.6-7.7,8s3.5,8,7.7,8h265.8c0.1,0,0.2,0,0.3,0
			c2.5,0.2,18.7,1.8,18.7,16.3c0,15.6-19,15.6-19,15.6v0.1H237.5c-4.3,0-7.7,3.6-7.7,8s3.5,8,7.7,8h265.8c0.3,0,0.7,0,1-0.1
			c5.8,0.4,35.2,0.6,35.2-31C539.5,410.8,503.3,412.6,503.3,412.6z"/>
		<path class="st11" d="M241.2,430.8c0,0,9.7,17.5,0,28.8"/>
		<line class="st10" x1="243.8" y1="437.3" x2="366" y2="437.3"/>
		<line class="st10" x1="377.4" y1="437.3" x2="386.8" y2="437.3"/>
		<line class="st10" x1="401.8" y1="437.3" x2="486.5" y2="437.3"/>
		<line class="st10" x1="507.2" y1="448.3" x2="436.3" y2="448.3"/>
		<line class="st10" x1="426.7" y1="448.3" x2="411.9" y2="448.3"/>
		<line class="st10" x1="399.1" y1="448.3" x2="320.2" y2="448.3"/>
		<line class="st10" x1="298.9" y1="448.3" x2="270.9" y2="448.3"/>
	</g>
	<g>
		<g>
			
				<rect x="335.2" y="309.8" transform="matrix(0.8855 -0.4646 0.4646 0.8855 -137.1843 235.1656)" class="st9" width="146.7" height="172.3"/>
			<line class="st8" x1="328" y1="366.7" x2="368.3" y2="346"/>
			<line class="st8" x1="402.8" y1="469.5" x2="408.6" y2="466.5"/>
			<line class="st8" x1="377.7" y1="459" x2="418" y2="438.3"/>
			<line class="st8" x1="418.8" y1="461.2" x2="424.6" y2="458.2"/>
		</g>
		<line class="st8" x1="366.6" y1="367.7" x2="397.9" y2="351.6"/>
		<line class="st8" x1="410.3" y1="347" x2="435.9" y2="334.7"/>
		<line class="st8" x1="338.3" y1="382.2" x2="346.6" y2="378"/>
		<line class="st8" x1="351" y1="401.5" x2="387" y2="384.1"/>
		<line class="st8" x1="401.3" y1="377.2" x2="425.4" y2="365.5"/>
		<line class="st8" x1="359.8" y1="419.6" x2="363.1" y2="418"/>
		<line class="st8" x1="415.6" y1="392.6" x2="456.4" y2="372.8"/>
		<line class="st8" x1="369.2" y1="439.1" x2="450.2" y2="399.8"/>
	</g>
	<g>
		<g>
			<polygon class="st12" points="372.3,340 403.7,377.1 363.5,387.5 			"/>
			<g>
				
					<rect x="369.7" y="379.6" transform="matrix(0.9699 -0.2435 0.2435 0.9699 -84.2288 105.9476)" class="st5" width="33.7" height="28.2"/>
			</g>
		</g>
		<path class="st10" d="M430.4,543.1L419,546c-8.2,2-16.5-2.9-18.5-11.1l-1.2-4.7c-2-8.2,2.9-16.5,11.1-18.5l11.4-2.9
			c8.2-2,16.5,2.9,18.5,11.1l1.2,4.7C443.6,532.7,438.6,541.1,430.4,543.1z"/>
		<path class="st10" d="M401.2,378.1c1,2.1-0.1,5-3.9,5.9c-3.8,1-6.1-1.1-6.2-3.4l-1.7,0.4c0.9,2.1-0.2,4.8-3.9,5.8
			c-3.7,0.9-6-1-6.2-3.2l-2.8,0.7c0.9,2.1-0.2,4.8-3.9,5.8c-3.7,0.9-6-1-6.2-3.2l-2.9,0.7l32.3,128.7l40.3-10.1l-32.3-128.7
			L401.2,378.1z"/>
		<line class="st10" x1="381" y1="396.3" x2="400.9" y2="475.8"/>
		<line class="st10" x1="403.1" y1="484.6" x2="404.6" y2="490.4"/>
		<line class="st10" x1="406.7" y1="498.6" x2="409.7" y2="510.7"/>
		<line class="st10" x1="391.1" y1="384.8" x2="398.3" y2="413.6"/>
		<line class="st10" x1="400.2" y1="421" x2="406.7" y2="447.1"/>
		<line class="st10" x1="408.5" y1="454.3" x2="409.4" y2="457.7"/>
		<line class="st10" x1="410.9" y1="463.5" x2="421.9" y2="507.7"/>
		<path class="st13" d="M441.2,519.5l-44,11c-2.5,0.6-5-0.9-5.6-3.4l-1-4.1c-0.6-2.5,0.9-5,3.4-5.6l44-11c2.5-0.6,5,0.9,5.6,3.4
			l1,4.1C445.1,516.3,443.6,518.8,441.2,519.5z"/>
		<line class="st14" x1="370.7" y1="348.9" x2="377.8" y2="347.1"/>
	</g>
	<g>
		<g>
			<g>
				<g>
					<path class="st15" d="M613.7,383.8"/>
					<path class="st16" d="M619.1,382.4l11.2-27.6c3.1-7.7-0.6-16.6-8.3-19.7l-112-45.4c-7.7-3.1-16.6,0.6-19.7,8.3l-68.6,169.1
						c-3.1,7.7,0.6,16.6,8.3,19.7l112,45.4c7.7,3.1,16.6-0.6,19.7-8.3l53.7-132.5"/>
					<line class="st16" x1="603.2" y1="327.6" x2="621" y2="377.6"/>
					<line class="st16" x1="478.2" y1="312.9" x2="489.6" y2="317.5"/>
					<line class="st16" x1="470.7" y1="331.4" x2="482.1" y2="336.1"/>
					<line class="st16" x1="455.3" y1="369.4" x2="466.7" y2="374"/>
					<line class="st16" x1="447" y1="389.8" x2="458.4" y2="394.4"/>
					<line class="st16" x1="423.3" y1="448.2" x2="434.8" y2="452.8"/>
					<line class="st16" x1="431.6" y1="427.8" x2="443" y2="432.4"/>
					<line class="st16" x1="439.9" y1="407.4" x2="451.3" y2="412"/>
					<line class="st16" x1="463.2" y1="349.9" x2="474.6" y2="354.6"/>
				</g>
				<polyline class="st9" points="629,365.8 636.9,368.9 570.2,528.8 562.6,524.9 				"/>
			</g>
			<line class="st8" x1="504.2" y1="329.4" x2="604.5" y2="371.2"/>
			<line class="st17" x1="542.5" y1="370.7" x2="553.8" y2="375.3"/>
			<line class="st17" x1="563.7" y1="379.4" x2="595.7" y2="392.5"/>
			<line class="st8" x1="532.2" y1="366.5" x2="496.4" y2="351.8"/>
			<line class="st8" x1="488.1" y1="372.2" x2="502" y2="377.9"/>
			<line class="st8" x1="514.6" y1="383" x2="587.4" y2="412.9"/>
			<line class="st8" x1="479.9" y1="392.2" x2="516.9" y2="407.3"/>
			<line class="st8" x1="531.6" y1="413.4" x2="556.4" y2="423.5"/>
			<line class="st8" x1="472.3" y1="410.7" x2="475.7" y2="412.1"/>
			<line class="st8" x1="484.3" y1="415.7" x2="502.5" y2="423.1"/>
			<line class="st8" x1="511.8" y1="426.9" x2="518.4" y2="429.6"/>
			<line class="st8" x1="529.7" y1="434.2" x2="571.6" y2="451.4"/>
			<line class="st8" x1="464.1" y1="430.8" x2="547.4" y2="464.9"/>
			<line class="st8" x1="556" y1="468.4" x2="560.3" y2="470.2"/>
			<line class="st8" x1="456.6" y1="449" x2="472" y2="455.3"/>
			<line class="st8" x1="485" y1="460.6" x2="522.6" y2="476"/>
			<line class="st8" x1="535" y1="481.1" x2="539.9" y2="483.1"/>
		</g>
	</g>
	<g>
		<line class="st18" x1="282.3" y1="385" x2="293.8" y2="385"/>
		<line class="st18" x1="288" y1="378.3" x2="288" y2="390.9"/>
	</g>
	<g>
		<line class="st18" x1="458.6" y1="253" x2="470.1" y2="253"/>
		<line class="st18" x1="464.3" y1="246.2" x2="464.3" y2="258.9"/>
	</g>
	<path class="st10" d="M1113.7,512.7H828.6c-6.6,0-12-5.4-12-12V326.2c0-6.6,5.4-12,12-12h285.1c6.6,0,12,5.4,12,12v174.5
		C1125.7,507.3,1120.3,512.7,1113.7,512.7z"/>
	<path class="st19" d="M1095.1,477.7H850c-6.6,0-12-5.4-12-12V344.5c0-6.6,5.4-12,12-12h245.1c6.6,0,12,5.4,12,12v121.2
		C1107.1,472.3,1101.7,477.7,1095.1,477.7z"/>
	<path class="st5" d="M975.8,504.4h-1.9c-3.3,0-6-2.7-6-6v-1.9c0-3.3,2.7-6,6-6h1.9c3.3,0,6,2.7,6,6v1.9
		C981.8,501.7,979.1,504.4,975.8,504.4z"/>
	<path class="st10" d="M958.5,512.7c0,0,4.3,39.8-54.3,40.2v5.2h136.7v-5.2c0,0-55.2,3.9-51.7-40.2H958.5z"/>
	<path class="st10" d="M1076.1,558.7c0,0,4.2-23.1,23.3-23.8c19.1-0.7,23.6,23.8,23.6,23.8H1076.1z"/>
	<path class="st20" d="M1100.5,545.4L1100.5,545.4c-1.8,0-3.2-1.5-3.2-3.2v-9.5c0-1.8,1.5-3.2,3.2-3.2l0,0c1.8,0,3.2,1.5,3.2,3.2
		v9.5C1103.8,543.9,1102.3,545.4,1100.5,545.4z"/>
	<line class="st10" x1="1067.2" y1="454.4" x2="1068.9" y2="475"/>
	<line class="st8" x1="853.9" y1="438.3" x2="921.3" y2="438.3"/>
	<line class="st8" x1="853.9" y1="457.5" x2="889.5" y2="457.5"/>
	<line class="st8" x1="906.5" y1="457.5" x2="962.5" y2="457.5"/>
	<circle class="st19" cx="954.1" cy="428.3" r="6.8"/>
	<path class="st19" d="M1009.3,425.7c0,0-6.6,10-7.8,49.3"/>
	<g>
		<path class="st21" d="M1058.7,456.3l-13,9.5c-1.1,0.8-2.6,0.5-3.4-0.5l-15.5-21.2c-0.8-1.1-0.5-2.6,0.5-3.4l13-9.5
			c1.1-0.8,2.6-0.5,3.4,0.5l15.5,21.2C1060,454,1059.8,455.5,1058.7,456.3z"/>
		<path class="st5" d="M1043.8,446l-3.8,2.8c-2,1.5-4.9,1-6.4-1l0,0c-1.5-2-1-4.9,1-6.4l3.8-2.8c2-1.5,4.9-1,6.4,1l0,0
			C1046.3,441.7,1045.9,444.5,1043.8,446z"/>
	</g>
	<g>
		<path class="st10" d="M1008.2,414.6c0,0-12.9,0.7-19.9,11.3s-8.7,13.2-8.7,13.2l-15.9-12.3l-8.3,12.3l27.8,20.1l13-16"/>
		<path class="st10" d="M999.3,389.5c0,0,3,13.3-7,21.9c-10,8.6-13.6,33.6,3.7,44.3c17.3,10.7,25.6,7,25.6,7l-3-65.7L999.3,389.5z"
			/>
		<path class="st19" d="M997.8,304.6c0,0-8.9,3.5-8.9,7.6c0,4.2,0,55.9,0,55.9s0.6,30.7,43.2,30.9c42.6,0.2,40.2-30.9,40.2-30.9
			l0-53.3c0,0,0-9-7.1-10.3C1058.1,303.3,997.8,304.6,997.8,304.6z"/>
		<path class="st10" d="M1058.2,304.1c0,0-40.6,46-77.6,30.3c-37-15.7-28-59.4,16.7-67c43.2-7.5,75-4.3,85.4,44.6
			s-10.3,52.4-10.3,52.4v-49.6C1072.3,314.8,1069.1,304,1058.2,304.1z"/>
		<path class="st20" d="M1052.9,352.2h-0.4c-2.3,0-4.3-1.9-4.3-4.3v-3.5c0-2.3,1.9-4.3,4.3-4.3h0.4c2.3,0,4.2,1.9,4.2,4.3v3.5
			C1057.1,350.2,1055.2,352.2,1052.9,352.2z"/>
		<path class="st20" d="M1007,353.2h-0.4c-2.3,0-4.3-1.9-4.3-4.3v-3.5c0-2.3,1.9-4.3,4.3-4.3h0.4c2.3,0,4.3,1.9,4.3,4.3v3.5
			C1011.3,351.3,1009.4,353.2,1007,353.2z"/>
		<path class="st22" d="M1053.3,329.9c0,0,7.3-1.7,7.6,5.6"/>
		<path class="st23" d="M1030.2,366h-0.5c-3.6,0-6.6-3-6.6-6.6v-15.9c0-3.6,3-6.6,6.6-6.6h0.5c3.6,0,6.6,3,6.6,6.6v15.9
			C1036.8,363,1033.8,366,1030.2,366z"/>
		<path class="st12" d="M1042.4,375.4c0,0-14.4,2.1-23.8,0c0,0,3.4,10.3,11.8,9.1C1038.7,383.4,1042.4,375.4,1042.4,375.4z"/>
		<path class="st24" d="M1040.5,399l0.3,8.4c0,0-8.1,12-19.3,0v-9.1"/>
		<path class="st10" d="M1042.4,403.3c0,0,16.2-1.8,25.2,16.3s11.7,23.1,11.7,23.1l-23.7,23l-10.3-10.3l15.6-15.3l-8.2-16.7"/>
	</g>
	<circle class="st19" cx="1047.7" cy="463" r="6.8"/>
	<path class="st25" d="M1227.2,265.6h-100c-7.7,0-14,6.3-14,14v61.1c0,7.7,6.3,14,14,14h4.2l-12.6,14.7l44.7-14.7h63.7
		c7.7,0,14-6.3,14-14v-61.1C1241.3,271.9,1235,265.6,1227.2,265.6z"/>
	<line class="st8" x1="1134.6" y1="283.3" x2="1220.1" y2="283.3"/>
	<line class="st17" x1="1177.4" y1="301.6" x2="1182.2" y2="301.7"/>
	<line class="st17" x1="1192.7" y1="301.7" x2="1219.9" y2="301.9"/>
	<line class="st8" x1="1165.9" y1="301.5" x2="1135.5" y2="301.3"/>
	<line class="st8" x1="1135.4" y1="318.6" x2="1147.2" y2="318.7"/>
	<line class="st8" x1="1158" y1="318.8" x2="1219.8" y2="319.2"/>
	<line class="st8" x1="1135.3" y1="335.6" x2="1166.7" y2="335.8"/>
	<line class="st8" x1="1179.2" y1="335.9" x2="1200.3" y2="336.1"/>
	<polygon class="st26" points="891.9,398.2 866.8,403.3 855.5,381.2 873.6,362.5 896.1,373 	"/>
	<polygon class="st26" points="950.8,366.5 940.3,373.5 928.3,369.7 923.8,358 930.1,347.1 942.6,345.3 951.8,353.9 	"/>
	<circle class="st8" cx="929.7" cy="407.3" r="18.5"/>
	<line class="st19" x1="950.8" y1="422.4" x2="927.9" y2="385.7"/>
	
		<rect x="965.7" y="383.4" transform="matrix(0.9926 -0.1217 0.1217 0.9926 -40.5855 121.6388)" class="st26" width="19.3" height="19.3"/>
	<g>
		<line class="st18" x1="1144.3" y1="529.8" x2="1155.8" y2="529.8"/>
		<line class="st18" x1="1150" y1="523.1" x2="1150" y2="535.7"/>
	</g>
	<g>
		<line class="st18" x1="779.6" y1="436" x2="791.1" y2="436"/>
		<line class="st18" x1="785.3" y1="429.2" x2="785.3" y2="441.9"/>
	</g>
</g>
<g id="Layer_5">
</g>
</svg>
