<?xml version="1.0" encoding="utf-8"?>
<!-- Generator: Adobe Illustrator 21.0.0, SVG Export Plug-In . SVG Version: 6.00 Build 0)  -->
<svg version="1.1" xmlns="http://www.w3.org/2000/svg" xmlns:xlink="http://www.w3.org/1999/xlink" x="0px" y="0px"
	 viewBox="0 0 1366 768" style="enable-background:new 0 0 1366 768;" xml:space="preserve">
<style type="text/css">
	.st0{fill:#56B096;}
	.st1{opacity:0.3;fill:#FFFFFF;}
	.st2{fill:#FFFFFF;stroke:#2B2B2B;stroke-width:4;stroke-miterlimit:10;}
	.st3{fill:#9EE5CE;stroke:#2B2B2B;stroke-width:4;stroke-linecap:round;stroke-linejoin:round;stroke-miterlimit:10;}
	.st4{fill:#56B096;stroke:#2B2B2B;stroke-width:4;stroke-linecap:round;stroke-linejoin:round;stroke-miterlimit:10;}
	.st5{fill:none;stroke:#2B2B2B;stroke-width:4;stroke-miterlimit:10;}
	.st6{fill:none;stroke:#2B2B2B;stroke-width:4;stroke-linecap:round;stroke-linejoin:round;stroke-miterlimit:10;}
	.st7{fill:none;stroke:#FFFFFF;stroke-width:9;stroke-linecap:round;stroke-miterlimit:10;}
	.st8{fill:#2B2B2B;stroke:#2B2B2B;stroke-width:11;stroke-linecap:round;stroke-miterlimit:10;}
	.st9{opacity:0.3;fill:#2B2B2B;stroke:#2B2B2B;stroke-width:11;stroke-linecap:round;stroke-miterlimit:10;}
	.st10{fill:#2B2B2B;}
	.st11{fill:#56B096;stroke:#2B2B2B;stroke-width:3;stroke-linecap:round;stroke-linejoin:round;stroke-miterlimit:10;}
	.st12{fill:#56B096;stroke:#FFFFFF;stroke-width:4;stroke-linecap:round;stroke-linejoin:round;stroke-miterlimit:10;}
	.st13{fill:#FFFFFF;}
	.st14{fill:#FFFFFF;stroke:#2B2B2B;stroke-width:4;stroke-linecap:round;stroke-miterlimit:10;}
	.st15{fill:none;stroke:#C6C6C6;stroke-width:10;stroke-linecap:round;stroke-linejoin:round;stroke-miterlimit:10;}
	.st16{fill:none;stroke:#C6C6C6;stroke-width:3;stroke-linecap:round;stroke-linejoin:round;stroke-miterlimit:10;}
	.st17{fill:none;stroke:#56B096;stroke-width:6;stroke-linecap:round;stroke-miterlimit:10;}
	.st18{fill:#FFFFFF;stroke:#56B096;stroke-width:7;stroke-linecap:round;stroke-miterlimit:10;}
	.st19{fill:#2B2B2B;stroke:#2B2B2B;stroke-width:4;stroke-linejoin:round;stroke-miterlimit:10;}
	.st20{fill:none;stroke:#FFFFFF;stroke-width:6;stroke-linecap:round;stroke-miterlimit:10;}
	.st21{opacity:0.3;}
	.st22{fill:#2B2B2B;stroke:#000000;stroke-width:11;stroke-linecap:round;stroke-miterlimit:10;}
	.st23{fill:none;stroke:#56B096;stroke-width:9;stroke-linecap:round;stroke-miterlimit:10;}
</style>
<g id="Layer_4">
	<rect class="st0" width="1366" height="768"/>
</g>
<g id="Layer_3">
	<path class="st1" d="M702.8,688.9c0,0-50-25.6-32-66c18-40.4,34.7-29.1,38-64.9c2.5-27.4-47-43.5-26.5-128.5
		c13.1-54.3,106.5-101,167.5-87s115.7,43.5,164.3,22c27.2-12,70.3-4.5,84.8,16.5c18.6,26.9,11.4,53,43.8,68.5
		c16.3,7.8,66.7,42.5,66.7,81.1c0,60.9-27.5,54.8-15.5,92.3c12,37.6-11,66-11,66H702.8"/>
	<path class="st1" d="M666.9,683.5c0,0,77.9-35.1,59.9-80.3c-18-45.2-60-54.7-34-110.1s74-53.3,97-101.3s83-71.7,132.3-51.8
		c49.3,19.8,47.3,50.5,99.3,54.5c52,4,127.8-10.7,123.9,70.7c-3.9,81.3,45.7,51.3,63.9,107.3c18.2,56-51.8,67-51.8,116.5l-493.3,0.2
		L666.9,683.5z"/>
	<g>
		<ellipse class="st2" cx="951.6" cy="325.7" rx="8.5" ry="7.3"/>
		<path class="st3" d="M1007.1,229.1c0-30.5-24.8-55.2-55.5-55.2c-30.6,0-55.5,24.7-55.5,55.2c0,13.8,5.1,26.4,13.5,36
			c1.2,1.4,2.4,2.7,3.7,3.9c4,4.5,10.1,12.6,12.2,21.5c3,12.4-2.5,34.7,26.1,34.7c28.9,0,23.2-23.7,27.7-36.8
			c4.3-12.4,14.3-23.2,14.3-23.2h0C1002,255.5,1007.1,242.9,1007.1,229.1z"/>
		<path class="st4" d="M925.3,291.4c0,0-2.5,34.7,26.1,34.7c28.9,0,27-34.7,27-34.7H925.3z"/>
		<path class="st2" d="M980.3,298.1h-57.2c-2.1,0-3.8-1.7-3.8-3.8V293c0-2.1,1.7-3.8,3.8-3.8h57.2c2.1,0,3.8,1.7,3.8,3.8v1.2
			C984.1,296.4,982.4,298.1,980.3,298.1z"/>
		<line class="st5" x1="925.8" y1="299.9" x2="975.1" y2="309"/>
		<line class="st5" x1="928.1" y1="311.1" x2="970.8" y2="319.5"/>
		<path class="st6" d="M943.9,287.7v-59.3c0,0,0.4-9.1-5.4-12.4c-5.8-3.3-14.6-0.2-14.6,8.3c0,8.5,12.8,8.7,28.4,8.1
			c15.5-0.6,27.5-0.6,26.1-9.5c-1.4-8.9-15.8-14-19.4-0.8s-0.6,65.6-0.6,65.6"/>
		<line class="st7" x1="970.2" y1="189.6" x2="975.1" y2="192.2"/>
		<path class="st7" d="M986.2,202.6c0,0,17.2,17.4,4.4,44.4"/>
		<line class="st7" x1="1022.6" y1="273.4" x2="1031.9" y2="277.6"/>
		<line class="st7" x1="1030.4" y1="221.2" x2="1040.8" y2="221.2"/>
		<line class="st7" x1="990.7" y1="163.6" x2="1000.4" y2="152"/>
		<line class="st7" x1="915.8" y1="164" x2="907.2" y2="151.6"/>
		<line class="st7" x1="876.9" y1="221.2" x2="861.8" y2="221.2"/>
		<line class="st7" x1="898.3" y1="280.7" x2="889.3" y2="289.2"/>
	</g>
</g>
<g id="Layer_2">
	<g>
		<line class="st8" x1="1245.6" y1="690.9" x2="1173.1" y2="691"/>
		<line class="st8" x1="1145.4" y1="691.1" x2="1139.9" y2="691.1"/>
		<line class="st8" x1="1121.7" y1="691.1" x2="1118" y2="691.1"/>
		<line class="st8" x1="1100.4" y1="691.1" x2="1002.9" y2="691.1"/>
		<line class="st8" x1="982.2" y1="691.1" x2="975.5" y2="691.1"/>
		<line class="st8" x1="954.2" y1="691.1" x2="755.7" y2="690.9"/>
		<line class="st8" x1="737.5" y1="690.9" x2="734.4" y2="690.9"/>
		<line class="st8" x1="719.2" y1="690.9" x2="645.5" y2="691.1"/>
		<line class="st8" x1="629.1" y1="690.9" x2="618.7" y2="690.9"/>
	</g>
	<line class="st9" x1="706.8" y1="734.4" x2="766.8" y2="734.4"/>
	<line class="st9" x1="792.8" y1="734.4" x2="814.8" y2="734.4"/>
	<line class="st9" x1="890.8" y1="734.4" x2="960.8" y2="734.4"/>
	<line class="st9" x1="1140.2" y1="734.4" x2="1150.2" y2="734.4"/>
	<line class="st9" x1="1166.8" y1="734.4" x2="1214.8" y2="734.4"/>
	<path class="st4" d="M1057.3,685.5c0,0,4.2-23.1,23.3-23.8c19.1-0.7,23.6,23.8,23.6,23.8H1057.3z"/>
	<path class="st10" d="M1081.7,672.2L1081.7,672.2c-1.8,0-3.2-1.5-3.2-3.2v-9.5c0-1.8,1.5-3.2,3.2-3.2l0,0c1.8,0,3.2,1.5,3.2,3.2
		v9.5C1084.9,670.7,1083.5,672.2,1081.7,672.2z"/>
	<path class="st11" d="M1224.6,651.4c0-5.1-0.6-8.6-0.6-8.6h-50.3c0,0-6.9,43,25.1,42.7c9.7-0.1,15.8-4.1,19.7-9.5
		c3.9,0.1,18.2-0.4,18.2-11.8C1236.7,654.1,1228.4,651.9,1224.6,651.4z M1221.9,669.3c1.3-3.6,2-7.4,2.4-10.9
		c2.4,0.7,6.4,2.4,6.5,5.8C1230.9,667.9,1224.8,669,1221.9,669.3z"/>
	<line class="st12" x1="1180.8" y1="649.6" x2="1180.8" y2="653.3"/>
	<path class="st12" d="M1182.6,662.2c0,0,1.2,9.4,8.1,14.9"/>
	<g>
		<polygon class="st13" points="645.1,677.6 644.1,660 800.2,660 808.5,667.4 806.6,675.9 796.6,678.8 		"/>
		<path class="st4" d="M796.6,650.5L796.6,650.5H640.4c-2.5,0-4.5,2.1-4.5,4.7s2,4.7,4.5,4.7h156.3c0.1,0,0.1,0,0.2,0
			c1.5,0.1,11,1.1,11,9.6c0,9.2-11.2,9.2-11.2,9.2v0.1H640.4c-2.5,0-4.5,2.1-4.5,4.7s2,4.7,4.5,4.7h156.3c0.2,0,0.4,0,0.6,0
			c3.4,0.2,20.7,0.4,20.7-18.2C817.9,649.5,796.6,650.5,796.6,650.5z"/>
		<path class="st6" d="M642.5,661.3c0,0,5.7,10.3,0,16.9"/>
		<line class="st4" x1="644.1" y1="665.1" x2="715.9" y2="665.1"/>
		<line class="st4" x1="722.6" y1="665.1" x2="728.1" y2="665.1"/>
		<line class="st4" x1="736.9" y1="665.1" x2="786.8" y2="665.1"/>
		<line class="st4" x1="798.9" y1="671.5" x2="757.2" y2="671.5"/>
		<line class="st4" x1="751.6" y1="671.5" x2="742.9" y2="671.5"/>
		<line class="st4" x1="735.4" y1="671.5" x2="689" y2="671.5"/>
		<line class="st4" x1="676.5" y1="671.5" x2="660" y2="671.5"/>
		<polygon class="st13" points="670.5,639.2 669.8,618.1 784.7,618.1 790.8,627.1 789.4,637.2 782.1,640.6 		"/>
	</g>
	<g>
		<path class="st4" d="M782.1,605.2L782.1,605.2H665.4c-1.9,0-3.4,2.6-3.4,5.7s1.5,5.7,3.4,5.7h116.7c0,0,0.1,0,0.1,0
			c1.1,0.1,8.2,1.3,8.2,11.6c0,11.1-8.4,11.1-8.4,11.1v0.1H665.4c-1.9,0-3.4,2.6-3.4,5.7c0,3.1,1.5,5.7,3.4,5.7h116.7
			c0.1,0,0.3,0,0.4-0.1c2.5,0.3,15.5,0.4,15.5-22C798,603.9,782.1,605.2,782.1,605.2z"/>
		<path class="st6" d="M668.6,618.1c0,0,4,12.4,0,20.4"/>
		<line class="st4" x1="669.7" y1="622.7" x2="720.2" y2="622.7"/>
		<line class="st4" x1="724.9" y1="622.7" x2="728.8" y2="622.7"/>
		<line class="st4" x1="735" y1="622.7" x2="770.1" y2="622.7"/>
		<line class="st4" x1="778.6" y1="630.5" x2="749.3" y2="630.5"/>
		<line class="st4" x1="745.3" y1="630.5" x2="739.2" y2="630.5"/>
		<line class="st4" x1="733.9" y1="630.5" x2="701.2" y2="630.5"/>
		<line class="st4" x1="692.4" y1="630.5" x2="680.8" y2="630.5"/>
	</g>
	<g>
		<path class="st4" d="M1086.9,640.1H801.8c-6.6,0-12-5.4-12-12V453.6c0-6.6,5.4-12,12-12h285.1c6.6,0,12,5.4,12,12v174.5
			C1098.9,634.7,1093.5,640.1,1086.9,640.1z"/>
		<path class="st14" d="M1063.7,605.2H818.6c-6.6,0-12-5.4-12-12V472c0-6.6,5.4-12,12-12h245.1c6.6,0,12,5.4,12,12v121.2
			C1075.7,599.8,1070.3,605.2,1063.7,605.2z"/>
		<path class="st13" d="M949,631.8h-1.9c-3.3,0-6-2.7-6-6v-1.9c0-3.3,2.7-6,6-6h1.9c3.3,0,6,2.7,6,6v1.9
			C955,629.1,952.3,631.8,949,631.8z"/>
		<path class="st4" d="M931.7,641.1c0,0,4.3,39.8-54.3,40.2v5.2h136.7v-5.2c0,0-55.2,3.9-51.7-40.2H931.7z"/>
	</g>
	<polyline class="st15" points="813.2,468.1 813.2,598.1 1069.1,598.1 1069.1,468.1 	"/>
	<line class="st16" x1="944.1" y1="466.1" x2="944.1" y2="587.4"/>
	<line class="st17" x1="830.2" y1="490.4" x2="934.2" y2="490.4"/>
	<line class="st17" x1="831.2" y1="571.7" x2="931" y2="571.7"/>
	<line class="st18" x1="881.1" y1="549.9" x2="886.9" y2="549.9"/>
	<line class="st18" x1="899" y1="550.2" x2="930.8" y2="549.9"/>
	<line class="st17" x1="867.5" y1="550" x2="831.5" y2="550.3"/>
	<line class="st17" x1="831.3" y1="529.8" x2="845.3" y2="529.7"/>
	<line class="st17" x1="858.1" y1="529.6" x2="931.5" y2="529"/>
	<line class="st17" x1="831.2" y1="509.6" x2="868.5" y2="509.3"/>
	<line class="st17" x1="883.3" y1="509.2" x2="908.3" y2="509.1"/>
	<line class="st17" x1="1056.2" y1="490.5" x2="952.2" y2="490.5"/>
	<line class="st17" x1="1055.1" y1="571.8" x2="955.4" y2="571.8"/>
	<line class="st18" x1="1005.2" y1="550" x2="999.5" y2="549.9"/>
	<line class="st18" x1="987.3" y1="550.2" x2="955.5" y2="550"/>
	<line class="st17" x1="1018.8" y1="550.1" x2="1054.9" y2="550.3"/>
	<line class="st17" x1="1055" y1="529.8" x2="1041" y2="529.7"/>
	<line class="st17" x1="1028.3" y1="529.6" x2="954.8" y2="529.1"/>
	<line class="st17" x1="1055.2" y1="509.6" x2="1017.8" y2="509.4"/>
	<line class="st17" x1="1003" y1="509.3" x2="978" y2="509.1"/>
	<g>
		<path class="st19" d="M703.6,390.8h100c7.7,0,14,6.3,14,14V466c0,7.7-6.3,14-14,14h-4.2l12.6,14.7L767.3,480h-63.7
			c-7.7,0-14-6.3-14-14v-61.1C689.6,397.1,695.9,390.8,703.6,390.8z"/>
		<line class="st17" x1="782" y1="408.5" x2="711.5" y2="408.5"/>
		<line class="st18" x1="753.5" y1="426.8" x2="748.6" y2="426.9"/>
		<line class="st18" x1="738.4" y1="426.6" x2="711.6" y2="426.8"/>
		<line class="st17" x1="764.9" y1="426.7" x2="795.3" y2="426.5"/>
		<line class="st17" x1="795.4" y1="443.8" x2="783.6" y2="443.9"/>
		<line class="st17" x1="772.9" y1="444" x2="711" y2="444.4"/>
		<line class="st17" x1="795.5" y1="460.8" x2="764.1" y2="461"/>
		<line class="st17" x1="751.6" y1="461.1" x2="730.5" y2="461.3"/>
	</g>
	<circle class="st4" cx="812.4" cy="396" r="18.8"/>
	<g>
		<line class="st12" x1="812.4" y1="386.9" x2="812.4" y2="398.4"/>
		<line class="st12" x1="812.4" y1="404.5" x2="812.4" y2="403.7"/>
	</g>
	<path class="st19" d="M1148.1,411.8h-158c-5.9,0-10.7-4.8-10.7-10.7v-20.7c0-5.9,4.8-10.7,10.7-10.7h158c5.9,0,10.7,4.8,10.7,10.7
		v20.7C1158.8,407,1154,411.8,1148.1,411.8z"/>
	<path class="st14" d="M1177.9,366.4h-158c-5.9,0-10.7-4.8-10.7-10.7v-20.7c0-5.9,4.8-10.7,10.7-10.7h158c5.9,0,10.7,4.8,10.7,10.7
		v20.7C1188.6,361.6,1183.8,366.4,1177.9,366.4z"/>
	<line class="st18" x1="1111.2" y1="352" x2="1105.4" y2="351.9"/>
	<line class="st18" x1="1093.3" y1="352.1" x2="1061.5" y2="351.8"/>
	<line class="st17" x1="1124.8" y1="352.1" x2="1160.8" y2="352.3"/>
	<line class="st17" x1="1161" y1="338.3" x2="1147" y2="338.2"/>
	<line class="st17" x1="1134.2" y1="338.1" x2="1060.8" y2="337.6"/>
	<circle class="st0" cx="1031" cy="345.4" r="10.9"/>
	<circle class="st0" cx="1001" cy="389.4" r="10.9"/>
	<line class="st18" x1="1089.5" y1="382.9" x2="1095.3" y2="383"/>
	<line class="st18" x1="1107.4" y1="382.8" x2="1139.2" y2="383"/>
	<line class="st17" x1="1076" y1="382.8" x2="1039.9" y2="382.6"/>
	<line class="st17" x1="1039.8" y1="396.6" x2="1053.8" y2="396.7"/>
	<line class="st17" x1="1066.5" y1="396.8" x2="1140" y2="397.3"/>
	<path class="st20" d="M1188.2,631.8c0,0-13.7-8.4-3.3-17c10.3-8.7,1-18.3-4-18.7"/>
	<path class="st20" d="M1212.7,631.8c0,0-13.7-8.4-3.3-17c10.3-8.7,1-18.3-4-18.7"/>
	<g class="st21">
		<line class="st22" x1="1252.9" y1="698.2" x2="1180.4" y2="698.3"/>
		<line class="st22" x1="1152.7" y1="698.4" x2="1147.3" y2="698.4"/>
		<line class="st22" x1="1129" y1="698.4" x2="1125.3" y2="698.4"/>
		<line class="st22" x1="1107.7" y1="698.4" x2="1010.3" y2="698.4"/>
		<line class="st22" x1="989.6" y1="698.4" x2="982.9" y2="698.4"/>
		<line class="st22" x1="961.6" y1="698.4" x2="763.1" y2="698.2"/>
		<line class="st22" x1="744.8" y1="698.2" x2="741.8" y2="698.2"/>
		<line class="st22" x1="726.5" y1="698.2" x2="652.9" y2="698.4"/>
		<line class="st22" x1="636.4" y1="698.2" x2="626.1" y2="698.2"/>
	</g>
	<g>
		<line class="st23" x1="901.4" y1="402.4" x2="912.9" y2="402.4"/>
		<line class="st23" x1="907.1" y1="395.7" x2="907.1" y2="408.3"/>
	</g>
	<g>
		<line class="st23" x1="747.8" y1="550.8" x2="759.3" y2="550.8"/>
		<line class="st23" x1="753.6" y1="544" x2="753.6" y2="556.6"/>
	</g>
	<g>
		<line class="st7" x1="1185" y1="433.6" x2="1196.5" y2="433.6"/>
		<line class="st7" x1="1190.8" y1="426.9" x2="1190.8" y2="439.5"/>
	</g>
	<g>
		<line class="st7" x1="777.9" y1="324.9" x2="789.4" y2="324.9"/>
		<line class="st7" x1="783.6" y1="318.1" x2="783.6" y2="330.7"/>
	</g>
</g>
</svg>
